# xmcd CD database file
#
# Track frame offsets:
#	150
#	18362
#	30745
#	52802
#	67714
#	92643
#	109129
#	124435
#	138592
#	150814
#	176101
#	189455
#	207625
#
# Disc length: 2870 seconds
#
# Revision: 0
# Processed by: cddbd v1.5.1PL0 Copyright (c) Steve Scherf et al.
# Submitted via: CDex 1.51
#
DISCID=ac0b340d
DTITLE=Mephis Slim - Willie Dixon - Jazz In Paris
DYEAR=1900
DGENRE=Jazz
TTITLE0=Rock and rolling the house
TTITLE1=Baby please come home
TTITLE2=How make you do me like you do
TTITLE3=The way she loves a man
TTITLE4=New way to love
TTITLE5=African hunch with a boogie beat
TTITLE6=Shame pretty girls
TTITLE7=Baby-baby-baby
TTITLE8=Do de do
TTITLE9=Cold blooded
TTITLE10=Just you and I
TTITLE11=Pigalle love
TTITLE12=All by myself
EXTD=
EXTT0=
EXTT1=
EXTT2=
EXTT3=
EXTT4=
EXTT5=
EXTT6=
EXTT7=
EXTT8=
EXTT9=
EXTT10=
EXTT11=
EXTT12=
PLAYORDER=
